
<svg viewBox="0 0 246 174">
    <path d="M24,174h28.12c12.73,0,24.94-5.06,33.94-14.06L190.97,55.03c4.5-4.5,10.61-7.03,16.97-7.03h14.06c13.25,0,24-10.75,24-24h0C246,10.75,235.25,0,222,0h-28.12c-12.73,0-24.94,5.06-33.94,14.06L55.03,118.97c-4.5,4.5-10.61,7.03-16.97,7.03h-14.05c-13.26,0-24,10.74-24,24H0c0,13.26,10.75,24,24,24Z"/>
    <path class="inverted" d="M24,168c-9.93,0-18-8.08-18-18s8.08-18,18-18h14.06c8.02,0,15.55-3.12,21.22-8.78L164.18,18.3c7.93-7.93,18.48-12.3,29.7-12.3h28.12c9.92,0,18,8.07,18,18s-8.08,18-18,18h-14.06c-8.01,0-15.55,3.12-21.21,8.79l-104.91,104.91c-7.93,7.93-18.48,12.3-29.7,12.3H24Z"/>
</svg>